<svg id="Layer_1" data-name="Layer 1" xmlns="http://www.w3.org/2000/svg" viewBox="0 0 96.24 63.5"><defs><style>.cls-1{fill:none;stroke:#000;stroke-miterlimit:10;}.cls-2{fill-rule:evenodd;}</style></defs><title>arrows</title><path class="cls-1" d="M62.6,2H36.4a1.79,1.79,0,0,0-1.79,1.79V30a1.79,1.79,0,0,0,1.79,1.79H62.6A1.79,1.79,0,0,0,64.38,30V3.79A1.79,1.79,0,0,0,62.6,2Zm0,32.74H36.4a1.79,1.79,0,0,0-1.79,1.79V62.72A1.79,1.79,0,0,0,36.4,64.5H62.6a1.79,1.79,0,0,0,1.79-1.79V36.53A1.79,1.79,0,0,0,62.6,34.74Zm-32.74,0H3.67a1.79,1.79,0,0,0-1.79,1.79V62.72A1.79,1.79,0,0,0,3.67,64.5H29.86a1.79,1.79,0,0,0,1.79-1.79V36.53A1.79,1.79,0,0,0,29.86,34.74Zm65.48,0H69.14a1.79,1.79,0,0,0-1.79,1.79V62.72a1.79,1.79,0,0,0,1.79,1.79H95.34a1.79,1.79,0,0,0,1.79-1.79V36.53A1.79,1.79,0,0,0,95.34,34.74Z" transform="translate(-1.38 -1.5)"/><path class="cls-2" d="M13.78,49.62a0.56,0.56,0,0,1,.28-0.48h0l4.2-2.41h0a0.58,0.58,0,0,1,.29-0.08,0.57,0.57,0,0,1,.57.56h0V52h0a0.57,0.57,0,0,1-.57.56,0.58,0.58,0,0,1-.29-0.08h0l-4.2-2.41h0A0.56,0.56,0,0,1,13.78,49.62Z" transform="translate(-1.38 -1.5)"/><path class="cls-2" d="M49.5,14.5a0.55,0.55,0,0,1,.48.28h0L52.39,19h0a0.58,0.58,0,0,1,.08.29,0.57,0.57,0,0,1-.56.57H47.08a0.57,0.57,0,0,1-.56-0.57A0.58,0.58,0,0,1,46.6,19h0L49,14.78h0A0.55,0.55,0,0,1,49.5,14.5Z" transform="translate(-1.38 -1.5)"/><path class="cls-2" d="M85.22,49.62a0.55,0.55,0,0,0-.28-0.48h0l-4.2-2.41h0a0.58,0.58,0,0,0-.29-0.08,0.57,0.57,0,0,0-.57.56h0V52h0a0.57,0.57,0,0,0,.57.56,0.58,0.58,0,0,0,.29-0.08h0l4.2-2.41h0A0.55,0.55,0,0,0,85.22,49.62Z" transform="translate(-1.38 -1.5)"/><path class="cls-2" d="M49.5,52.6A0.55,0.55,0,0,0,50,52.31h0l2.41-4.2h0a0.58,0.58,0,0,0,.08-0.29,0.57,0.57,0,0,0-.56-0.57H47.08a0.57,0.57,0,0,0-.56.57,0.58,0.58,0,0,0,.08.29h0L49,52.32h0A0.55,0.55,0,0,0,49.5,52.6Z" transform="translate(-1.38 -1.5)"/></svg>