<svg id="Layer_1" data-name="Layer 1" xmlns="http://www.w3.org/2000/svg" viewBox="0 0 81.11 32.55"><title>logo</title><path d="M53.2,14.37H52.81l-0.09.11a14.51,14.51,0,0,1-2.9,2.86,5,5,0,0,1-2.84.92H46.49c-1.85,0-2.34-.56-2.34-2.68V10.86h1.48c2.25,0,3,.58,3.42,2.71H49.4V8H49.06c-0.36,1.81-1.24,2.39-3.45,2.39H44.15V6.7c0-1.74.7-2.39,2.63-2.39h0.61C49.8,4.31,51.24,5.45,52,8h0.34L51.64,3.9H39.45V4.24A2.77,2.77,0,0,1,41.07,5a3,3,0,0,1,.52,2.21v8.25a3.31,3.31,0,0,1-.4,2.1,2.64,2.64,0,0,1-1.73.9v0.33H51.91ZM53,18.82h5.73V18.48c-1.62-.31-2.35-1-2.35-2.1a4.8,4.8,0,0,1,.43-1.68l0.63-1.41h5.63l1.22,2.77a3,3,0,0,1,.36,1.16,1.11,1.11,0,0,1-.79,1.05,6,6,0,0,1-1.28.2v0.33h7V18.48a2.86,2.86,0,0,1-2.16-1.77l-0.5-1a2.71,2.71,0,0,1-.13-0.29L61.5,3.63H61.17L56.31,14.55C55.22,17,54.37,18,53,18.48v0.33Zm7.2-11.9,2.67,5.92H57.61ZM71.55,4.31a1.94,1.94,0,0,1,1.76.8,3.1,3.1,0,0,1,.31,1.65v8.72a2.79,2.79,0,0,1-.52,2.1,3.5,3.5,0,0,1-2.09.9v0.33h7.75V18.48a3.59,3.59,0,0,1-2-.78c-0.5-.45-0.63-0.94-0.63-2.21V6.77a3.25,3.25,0,0,1,.22-1.43,1.93,1.93,0,0,1,1.85-1C79.9,4.31,81.34,5.71,82,8h0.34L81.63,3.9H68.14L67.41,8h0.36C68.44,5.71,69.88,4.31,71.55,4.31ZM30.65,18.48a3,3,0,0,1-1.76-.78c-0.43-.45-0.54-0.94-0.54-2.21V11h1.89a2.06,2.06,0,0,1,2.32,1.9c0,0.19.09,0.48,0.16,0.84,0.4,1.92,1.19,4.86,4.06,5.06h2V18.53c-1.24-.45-2.27-1.8-3.06-3.94-0.68-1.84-1.13-3.12-2.77-3.77,2.63-.2,3.89-1.32,3.89-3.29,0-2.35-2-3.82-5.4-3.82q-0.71,0-1.42.07l-1.55.16C27.79,4,27,4,26.23,4c-0.52,0-1,0-1.35,0l-1,0-0.27,0V4.24A2.83,2.83,0,0,1,25.26,5c0.4,0.45.52,0.94,0.52,2.21v8.25a3.31,3.31,0,0,1-.41,2.1,2.64,2.64,0,0,1-1.73.89v0.34h7V18.48ZM28.35,6.77a3.86,3.86,0,0,1,.27-1.68,2.24,2.24,0,0,1,2.07-.94A3.27,3.27,0,0,1,34.2,7.48a3,3,0,0,1-1.44,2.71,5.94,5.94,0,0,1-2.45.38h-2V6.77Zm-3.3,14.08H19.16v0.34c1.73,0.31,2.53,1,2.53,2.08a5.34,5.34,0,0,1-.43,1.7l-3,7.48-3-7.84H14.75l-2.92,8-3.38-9a4.25,4.25,0,0,1-.27-1.21,1,1,0,0,1,.79-1,7,7,0,0,1,1.35-.2V20.84H3.2v0.34c1.28,0.29,1.89,1,2.72,3.06l4.75,11.87H11l2.9-7.94,3,7.94h0.33l4.41-11c0.92-2.28,1.89-3.42,3.33-3.93V20.84Zm45.71,13.3L69.9,33c-0.07-.11-0.16-0.2-0.2-0.29L65.21,26,66,25.2,66.26,25l1.08-1a10.12,10.12,0,0,1,4.28-2.8V20.84H65.5v0.34a1.6,1.6,0,0,1,1.66,1.48c0,0.63-.31,1.14-1.42,2.21l-4.34,4.2V24.17a3.19,3.19,0,0,1,.41-2.08,2.66,2.66,0,0,1,1.73-.92V20.84H56.77v0.34a2.76,2.76,0,0,1,1.62.78c0.41,0.45.52,1,.52,2.21v8.25a3.31,3.31,0,0,1-.4,2.1,2.45,2.45,0,0,1-1.66.89v0.33H63.7V35.42a3,3,0,0,1-1.76-.78c-0.43-.45-0.54-0.94-0.54-2.21V29.69l2-1.9L66.87,33a2.88,2.88,0,0,1,.68,1.48c0,0.65-.41.89-1.58,1v0.33h7.09V35.42A3,3,0,0,1,70.76,34.15ZM32.31,20.49a7.83,7.83,0,1,0,7.86,7.83A7.87,7.87,0,0,0,32.31,20.49ZM35.6,34.06a4.45,4.45,0,0,1-3.29,1.47c-3.11,0-5.11-2.84-5.11-7.29s2-7.33,5.09-7.33,5.09,2.86,5.09,7.31C37.38,30.77,36.77,32.83,35.6,34.06Zm47.18-5.72a11.53,11.53,0,0,0-3.13-1.66,14.14,14.14,0,0,1-3-1.48,2.36,2.36,0,0,1-1-1.88C75.68,22,76.81,21,78.43,21a4,4,0,0,1,3,1.32,6.15,6.15,0,0,1,1.22,2.5H83l-0.65-3.64H82.26A6.86,6.86,0,0,1,80.7,21l-0.65-.18a6.49,6.49,0,0,0-1.73-.24,4.1,4.1,0,0,0-4.39,3.89c0,1.43.76,2.53,2.36,3.42,0.41,0.2.79,0.38,2.39,1.07C81.27,30.08,82,31,82,32.56a2.94,2.94,0,0,1-3.26,3,4.14,4.14,0,0,1-3.36-1.72,8.35,8.35,0,0,1-1.58-3H73.54l0.31,4.14L74.17,35a16.82,16.82,0,0,0,2.16.72,13.12,13.12,0,0,0,2.46.31c3.17,0,5.52-2,5.52-4.61A3.91,3.91,0,0,0,82.78,28.34ZM53.08,31.53C52.4,29.69,52,28.4,50.31,27.76c2.63-.2,3.89-1.32,3.89-3.29,0-2.35-2-3.82-5.4-3.82q-0.71,0-1.42.07l-1.55.16c-0.65,0-1.44.09-2.21,0.09-0.52,0-1,0-1.35,0l-1,0-0.27,0v0.34a2.84,2.84,0,0,1,1.62.78c0.4,0.45.52,0.94,0.52,2.21v8.25a3.32,3.32,0,0,1-.41,2.1,2.64,2.64,0,0,1-1.73.89v0.33h7V35.42a3,3,0,0,1-1.76-.78c-0.43-.45-0.54-0.94-0.54-2.21V28h1.89a2.06,2.06,0,0,1,2.32,1.9c0,0.19.09,0.48,0.16,0.84,0.4,1.92,1.19,4.86,4.06,5.06h2V35.47C54.91,35,53.87,33.67,53.08,31.53Zm-5.38-4h-2v-3.8A3.86,3.86,0,0,1,46,22a2.24,2.24,0,0,1,2.07-.94,3.27,3.27,0,0,1,3.51,3.33,3,3,0,0,1-1.44,2.71A5.94,5.94,0,0,1,47.7,27.51ZM13.88,19.17a10.84,10.84,0,0,0,3.81-.67,11.45,11.45,0,0,1,3.65-.67h0.36l-0.68-1v-2a4.17,4.17,0,0,1,.32-2.08,1.88,1.88,0,0,1,1.31-.92V11.53H15.88v0.33a3.07,3.07,0,0,1,2,.74c0.5,0.45.63,1,.63,2.26v0.36a3.81,3.81,0,0,1-.34,1.88,3.63,3.63,0,0,1-3.22,1.36c-3.67,0-6.4-3.26-6.4-7.65a6.67,6.67,0,0,1,1.6-4.67,5.88,5.88,0,0,1,4.5-2.08c2.32,0,3.9,1.14,5.43,4h0.32L19.1,4.1H19c-0.2,0-.38,0-0.38,0a4.46,4.46,0,0,1-.65-0.07c-0.86-.16-1.33-0.22-1.49-0.27a15.42,15.42,0,0,0-2.3-.2A8.08,8.08,0,0,0,5.9,11.53a8,8,0,0,0,2.34,5.66A7.78,7.78,0,0,0,13.88,19.17Z" transform="translate(-3.2 -3.59)"/></svg>