<svg id="Layer_1" data-name="Layer 1" xmlns="http://www.w3.org/2000/svg" viewBox="0 0 511 389.24"><defs><style>.cls-1{fill:#231f20;}</style></defs><title>arrowLeft</title><path class="cls-1" d="M5.5,271.4c-0.2-.2-0.3-0.4-0.5-0.6A2.65,2.65,0,0,1,5.5,271.4Z" transform="translate(0 -61.36)"/><path class="cls-1" d="M6.8,272.9c-0.2-.3-0.5-0.5-0.7-0.8C6.3,272.4,6.6,272.6,6.8,272.9Z" transform="translate(0 -61.36)"/><path class="cls-1" d="M5,270.8a12.13,12.13,0,0,1-1-1.4C4.4,269.9,4.7,270.4,5,270.8Z" transform="translate(0 -61.36)"/><path class="cls-1" d="M6.1,272.1c-0.2-.2-0.4-0.5-0.6-0.7C5.7,271.6,5.9,271.9,6.1,272.1Z" transform="translate(0 -61.36)"/><path class="cls-1" d="M8.8,274.7c-0.2-.2-0.5-0.4-0.7-0.6l0.2,0.2Z" transform="translate(0 -61.36)"/><path class="cls-1" d="M7.2,273.3l-0.4-.4A1.51,1.51,0,0,1,7.2,273.3Z" transform="translate(0 -61.36)"/><path class="cls-1" d="M8.1,274.1a6.47,6.47,0,0,1-.9-0.8A6.47,6.47,0,0,0,8.1,274.1Z" transform="translate(0 -61.36)"/><path class="cls-1" d="M0.2,255.6v1.5c0,0.4.1,0.8,0.1,1.1v0.2a4.1,4.1,0,0,0,.1,1.1v0.2c0.1,0.4.1,0.7,0.2,1.1V261c0.1,0.4.2,0.7,0.3,1.1v0.2c0.1,0.4.2,0.7,0.3,1.1a0.2,0.2,0,0,1,.1.2c0.1,0.3.3,0.7,0.4,1a0.2,0.2,0,0,1,.1.2c0.1,0.3.3,0.7,0.4,1,0,0.1.1,0.1,0.1,0.2a9.29,9.29,0,0,0,.5,1c0,0.1.1,0.1,0.1,0.2a3.13,3.13,0,0,0,.5,1l0.1,0.1c0.2,0.3.4,0.7,0.6,1h0a21.77,21.77,0,0,0,4.3,4.8l0.5,0.4a0.1,0.1,0,0,0,.1.1l194,170a24.38,24.38,0,0,0,32-36.8L89.1,280H486.7a24,24,0,1,0,0-48H89.1L235,104.1a24.35,24.35,0,1,0-32-36.7L8.7,237.1l-0.5.3a2.36,2.36,0,0,1,.5-0.5l-0.5.5-0.2.2a6.47,6.47,0,0,0-.9.8l-0.4.4c-0.2.3-.5,0.5-0.7,0.8s-0.4.5-.6,0.7-0.3.4-.5,0.6a12.13,12.13,0,0,0-1,1.4h0c-0.2.3-.4,0.7-0.6,1l-0.1.1a9.29,9.29,0,0,1-.5,1c0,0.1-.1.1-0.1,0.2a9.25,9.25,0,0,0-.5,1c0,0.1-.1.1-0.1,0.2-0.1.3-.3,0.7-0.4,1a0.2,0.2,0,0,0-.1.2,4.18,4.18,0,0,0-.4,1,0.2,0.2,0,0,0-.1.2c-0.1.4-.2,0.7-0.3,1.1v0.2c-0.1.4-.2,0.7-0.3,1.1v0.2c-0.1.4-.1,0.7-0.2,1.1v0.2c0,0.4-.1.7-0.1,1.1v0.2a4.1,4.1,0,0,0-.1,1.1v0.2C0,255.1.2,255.2,0.2,255.6Z" transform="translate(0 -61.36)"/></svg>