<svg id="Layer_1" data-name="Layer 1" xmlns="http://www.w3.org/2000/svg" viewBox="0 0 389.48 510.7"><defs><style>.cls-1{fill:#231f20;}</style></defs><title>arrowUp2</title><path class="cls-1" d="M239.79,6.8c0.2-.2.4-0.3,0.6-0.5A2.65,2.65,0,0,1,239.79,6.8Z" transform="translate(-60.61 -1.3)"/><path class="cls-1" d="M238.29,8.1c0.3-.2.5-0.5,0.8-0.7C238.79,7.6,238.59,7.9,238.29,8.1Z" transform="translate(-60.61 -1.3)"/><path class="cls-1" d="M240.39,6.3a12.13,12.13,0,0,1,1.4-1C241.29,5.7,240.79,6,240.39,6.3Z" transform="translate(-60.61 -1.3)"/><path class="cls-1" d="M239.09,7.4c0.2-.2.5-0.4,0.7-0.6C239.59,7,239.29,7.2,239.09,7.4Z" transform="translate(-60.61 -1.3)"/><path class="cls-1" d="M236.49,10.1c0.2-.2.4-0.5,0.6-0.7l-0.2.2Z" transform="translate(-60.61 -1.3)"/><path class="cls-1" d="M237.89,8.5l0.4-.4A1.51,1.51,0,0,1,237.89,8.5Z" transform="translate(-60.61 -1.3)"/><path class="cls-1" d="M237.09,9.4a6.47,6.47,0,0,1,.8-0.9A6.47,6.47,0,0,0,237.09,9.4Z" transform="translate(-60.61 -1.3)"/><path class="cls-1" d="M255.59,1.5h-1.5c-0.4,0-.8.1-1.1,0.1h-0.2a4.1,4.1,0,0,0-1.1.1h-0.2c-0.4.1-.7,0.1-1.1,0.2h-0.2l-1.1.3h-0.2l-1.1.3a0.2,0.2,0,0,1-.2.1c-0.3.1-.7,0.3-1,0.4a0.2,0.2,0,0,1-.2.1c-0.3.1-.7,0.3-1,0.4-0.1,0-.1.1-0.2,0.1a9.29,9.29,0,0,0-1,.5c-0.1,0-.1.1-0.2,0.1a3.13,3.13,0,0,0-1,.5l-0.1.1c-0.3.2-.7,0.4-1,0.6h0a21.77,21.77,0,0,0-4.8,4.3l-0.4.5a0.1,0.1,0,0,0-.1.1h0l-170,194a24.38,24.38,0,1,0,36.8,32h0L231.19,90.4V488a24,24,0,0,0,48,0V90.4l127.9,145.9A24.35,24.35,0,0,0,444.38,205l-0.59-.67L274.09,10l-0.3-.5a2.36,2.36,0,0,1,.5.5l-0.5-.5-0.2-.2a6.47,6.47,0,0,0-.8-0.9l-0.4-.4c-0.3-.2-0.5-0.5-0.8-0.7a4.35,4.35,0,0,1-.7-0.6c-0.2-.2-0.4-0.3-0.6-0.5a12.13,12.13,0,0,0-1.4-1h0c-0.3-.2-0.7-0.4-1-0.6l-0.1-.1a9.29,9.29,0,0,1-1-.5c-0.1,0-.1-0.1-0.2-0.1a9.25,9.25,0,0,0-1-.5c-0.1,0-.1-0.1-0.2-0.1-0.3-.1-0.7-0.3-1-0.4a0.2,0.2,0,0,0-.2-0.1,4.18,4.18,0,0,0-1-.4,0.2,0.2,0,0,0-.2-0.1l-1.1-.3h-0.2l-1.1-.3h-0.2c-0.4-.1-0.7-0.1-1.1-0.2h-0.2c-0.4,0-.7-0.1-1.1-0.1h-0.2a4.1,4.1,0,0,0-1.1-.1h-0.2C256.09,1.3,256,1.5,255.59,1.5Z" transform="translate(-60.61 -1.3)"/></svg>