<svg id="Layer_1" data-name="Layer 1" xmlns="http://www.w3.org/2000/svg" viewBox="0 0 264.57 507.42"><title>arrowRight</title><path d="M130.83,9.29a21,21,0,0,0-.68,29.63L338.32,256.86l-208.16,218a21,21,0,0,0,29.11,30.27q0.63-.61,1.22-1.27l222-232.42c0.22-.23.4-0.47,0.61-0.7l0.36-.42c0.33-.39.63-0.8,0.92-1.21l0.38-.53c0.26-.39.5-0.78,0.73-1.18l0.36-.64c0.2-.38.38-0.77,0.56-1.16l0.32-.72c0.16-.38.29-0.77,0.42-1.16s0.18-.51.26-0.77,0.21-.79.3-1.19,0.13-.52.18-0.78c0.08-.44.14-0.87,0.2-1.31a5.31,5.31,0,0,1,.1-0.68c0.06-.67.1-1.34,0.1-2a13.4,13.4,0,0,0-.1-2,5.36,5.36,0,0,0-.1-0.7c-0.06-.43-0.11-0.86-0.19-1.29s-0.13-.56-0.2-0.84-0.17-.75-0.28-1.12-0.2-.6-0.3-0.9-0.23-.68-0.36-1-0.28-.63-0.42-0.94-0.28-.6-0.43-0.9-0.37-.66-0.56-1-0.31-.52-0.47-0.77-0.48-.69-0.73-1l-0.47-.62c-0.3-.37-0.62-0.74-1-1.09l-0.24-.27-222-232.4A21,21,0,0,0,130.83,9.29Z" transform="translate(-123.71 -3.58)"/></svg>