<svg id="Layer_1" data-name="Layer 1" xmlns="http://www.w3.org/2000/svg" viewBox="0 0 506.76 263.92"><title>arrowDown</title><path d="M503.57,130.51a21,21,0,0,0-29.63-.68L256,338l-218-208.16a21,21,0,1,0-29,30.33l232.42,222c0.23,0.22.47,0.4,0.7,0.61l0.42,0.36c0.39,0.33.8,0.63,1.21,0.92l0.53,0.38c0.39,0.26.78,0.5,1.18,0.73l0.64,0.36c0.38,0.2.77,0.38,1.16,0.56l0.72,0.32c0.38,0.16.77,0.29,1.16,0.42s0.51,0.18.77,0.26,0.79,0.21,1.19.3,0.52,0.13.78,0.18c0.44,0.08.87,0.14,1.31,0.2,0.23,0,.45.07,0.68,0.1,0.67,0.06,1.34.1,2,.1s1.34,0,2-.1c0.24,0,.47-0.07.7-0.1,0.43-.06.86-0.11,1.29-0.19s0.56-.13.84-0.2,0.75-.17,1.12-0.28,0.6-.2.9-0.3,0.68-.23,1-0.36,0.63-.28.94-0.42,0.6-.28.9-0.43,0.66-.37,1-0.56,0.52-.31.77-0.47,0.69-.48,1-0.73l0.62-.47c0.37-.3.74-0.62,1.09-0.95l0.27-.24,232.4-222A21,21,0,0,0,503.57,130.51Z" transform="translate(-2.62 -124.04)"/></svg>