<svg id="Layer_1" data-name="Layer 1" xmlns="http://www.w3.org/2000/svg" viewBox="0 0 507.42 264.57"><title>arrowUp</title><path d="M5,257.82a21,21,0,0,0,29.63.68L252.53,50.33l218,208.16a21,21,0,0,0,30.27-29.12q-0.61-.63-1.27-1.22L267.11,6.16c-0.23-.22-0.47-0.4-0.7-0.61L266,5.19c-0.39-.33-0.8-0.63-1.21-0.92l-0.53-.38c-0.39-.26-0.78-0.5-1.18-0.73l-0.64-.36c-0.38-.2-0.77-0.38-1.16-0.56l-0.72-.32c-0.38-.16-0.77-0.29-1.16-0.42l-0.77-.26c-0.26-.08-0.79-0.21-1.19-0.3s-0.52-.13-0.78-0.18c-0.44-.08-0.87-0.14-1.31-0.2a5.31,5.31,0,0,1-.68-0.1c-0.67-.06-1.34-0.1-2-0.1a13.4,13.4,0,0,0-2,.1,5.36,5.36,0,0,0-.7.1c-0.43.06-.86,0.11-1.29,0.19s-0.56.13-.84,0.2-0.75.17-1.12,0.28-0.6.2-.9,0.3-0.68.23-1,.36-0.63.28-.94,0.42l-0.9.43c-0.3.15-.66,0.37-1,0.56s-0.52.31-.77,0.47-0.69.48-1,.73L239.58,5c-0.37.3-.74,0.62-1.09,1l-0.27.24-232.4,222A21,21,0,0,0,5,257.82Z" transform="translate(0.76 -0.36)"/></svg>