<svg id="Layer_1" data-name="Layer 1" xmlns="http://www.w3.org/2000/svg" viewBox="0 0 512 512"><title>dong_basis_el</title><path d="M354.4,155.55a164,164,0,0,0-109.33-32.43,10.25,10.25,0,0,0,1.36,20.46,143.53,143.53,0,0,1,95.67,28.37A10.25,10.25,0,0,0,354.4,155.55Z"/><path d="M502,204.75a10.25,10.25,0,0,0-20.5,0,30.8,30.8,0,0,1-21,29.15C453.32,143.32,364.34,71.5,256,71.5A237.61,237.61,0,0,0,210.56,76,81.78,81.78,0,0,0,102.25,51.8a10.25,10.25,0,0,0,0,17.75,62.06,62.06,0,0,1,28.89,38.19C90.67,134.2,63.14,172.62,54.2,215h-34A10.24,10.24,0,0,0,10,225.25v82A10.24,10.24,0,0,0,20.25,317.5h49c18.06,34,47.81,61.41,84.26,79.28V461a10.25,10.25,0,0,0,20.5,0V405.56a239,239,0,0,0,164-.12V461a10.25,10.25,0,0,0,20.5,0V396.61C416.77,367.89,457,315.49,460.71,255A51.33,51.33,0,0,0,502,204.75ZM256,399.5c-75.75,0-143-38-171.22-96.69A10.26,10.26,0,0,0,75.54,297h-45V235.5H62.77a10.26,10.26,0,0,0,10.14-8.74c6.23-41.88,33.53-80.27,74.92-105.32a10.25,10.25,0,0,0,4.84-10.2,81.22,81.22,0,0,0-24.8-48c26.45-7,55.42,5.47,68.9,29.3a10.2,10.2,0,0,0,11.17,5A219.23,219.23,0,0,1,256,92c101.74,0,184.5,69,184.5,153.75S357.74,399.5,256,399.5Z"/><path d="M133,194.5A20.5,20.5,0,1,0,153.5,215,20.53,20.53,0,0,0,133,194.5Z"/></svg>