<svg id="Layer_1" data-name="Layer 1" xmlns="http://www.w3.org/2000/svg" viewBox="0 0 389.36 491.82"><title>bulb</title><path d="M307.23,419.94H204.77a10.25,10.25,0,1,0,0,20.49H307.23A10.25,10.25,0,1,0,307.23,419.94Zm0,41H204.77a10.24,10.24,0,1,0,0,20.49h41v10.25a10.25,10.25,0,1,0,20.49,0V481.41h41A10.24,10.24,0,1,0,307.23,460.93ZM256,10.09c-107.35,0-194.68,82.73-194.68,184.43,0,79.17,54.38,150,133.2,174.91V389.2a10.24,10.24,0,0,0,10.25,10.25H307.23a10.24,10.24,0,0,0,10.25-10.25V369.43c78.82-24.88,133.2-95.74,133.2-174.91C450.68,92.82,363.35,10.09,256,10.09Zm16.25,141.59a10.27,10.27,0,0,0-14.14,3.2c-16.48,26.18-22.57,64.66-23.64,103-21.29,3.8-36.63,1.67-44.57-6.31-10.5-10.56-7.6-30.84-4.94-42,5.43-22.65,21.77-38.22,40.69-56.24,15.82-15.07,33.45-31.86,46.12-55.15,36.74,34.56,61.29,109,52.7,144.81-3.41,14.29-10.16,32.2-22.85,36.38-11,3.75-27.15-2.74-46.74-18.55,0.71-36,5.93-71.76,20.59-95A10.24,10.24,0,0,0,272.25,151.68Zm32.28,200.2a10.25,10.25,0,0,0-7.55,9.89V379H264.57A719.27,719.27,0,0,1,255,286.39c14.68,9.72,27.89,14.56,39.86,14.56A41.73,41.73,0,0,0,308,298.86c17.4-5.74,29.64-22.93,36.37-51.09,11.13-46.45-21-139.23-70.29-174.11a10,10,0,0,0-8.73-1.48,10.22,10.22,0,0,0-6.62,5.87c-11,25.92-29.41,43.48-47.25,60.47-20.37,19.41-39.62,37.75-46.48,66.3-6.4,26.79-2.82,48,10.35,61.2,12.44,12.5,32.23,16.76,59,12.65,0.63,42,6.21,81.07,9.41,100.27H215V361.76a10.25,10.25,0,0,0-7.55-9.89C133.49,331.69,81.81,267,81.81,194.52,81.81,104.13,160,30.58,256,30.58s174.19,73.55,174.19,163.94C430.19,267,378.51,331.69,304.53,351.88Z" transform="translate(-61.32 -10.09)"/></svg>