<svg id="Layer_1" data-name="Layer 1" xmlns="http://www.w3.org/2000/svg" viewBox="0 0 398.23 503.02"><defs><style>.cls-1{fill:#000307;}</style></defs><title>calculator</title><path class="cls-1" d="M392.24,4.49H119.76A62.94,62.94,0,0,0,56.89,67.36V444.63a63,63,0,0,0,62.88,62.88H392.24a63,63,0,0,0,62.88-62.88V67.36A62.94,62.94,0,0,0,392.24,4.49ZM245.52,486.55H119.76a42,42,0,0,1-41.92-41.92V339.84H245.52V486.55Zm0-167.67H77.85V193.12H245.52V318.88ZM434.15,444.63a42,42,0,0,1-41.92,41.92H266.48V339.84H434.15V444.63Zm0-125.75H266.48V193.12H434.15V318.88Zm0-146.71H77.85V67.36a42,42,0,0,1,41.92-41.92H392.24a42,42,0,0,1,41.92,41.92v104.8ZM384,46.4H128A29.27,29.27,0,0,0,98.8,75.64V122A29.26,29.26,0,0,0,128,151.2H384A29.26,29.26,0,0,0,413.2,122V75.64A29.27,29.27,0,0,0,384,46.4ZM392.24,122a8.28,8.28,0,0,1-8.27,8.26H128a8.28,8.28,0,0,1-8.27-8.26V75.64A8.27,8.27,0,0,1,128,67.36H384a8.27,8.27,0,0,1,8.27,8.27V122ZM140.72,308.4h21V277h31.44V256H161.68V224.56h-21V256H109.28v21h31.44V308.4ZM392.24,256H308.4v21h83.84V256Zm-271,181.23L136,452l25.77-25.77L187.31,452l14.9-14.76-25.59-25.82,25.55-25.54-14.82-14.82-25.48,25.48-25.81-26-14.9,14.76L147,411.38Zm271-13.55H308.4v21h83.84v-21Zm0-41.92H308.4v21h83.84v-21Z" transform="translate(-56.89 -4.49)"/></svg>