<svg id="Layer_1" data-name="Layer 1" xmlns="http://www.w3.org/2000/svg" viewBox="0 0 512 512"><defs><style>.cls-1{fill:#010101;}</style></defs><title>contact</title><path class="cls-1" d="M494.91,374.17l-55.83-55.83a58.31,58.31,0,0,0-82.49,0L338,337A1240.41,1240.41,0,0,1,175,174l18.64-18.63a58.4,58.4,0,0,0,0-82.48L137.79,17.05a58.33,58.33,0,0,0-82.51,0L24.67,47.68A84.9,84.9,0,0,0,14,154.19,1228.1,1228.1,0,0,0,357.77,498a84.59,84.59,0,0,0,106.51-10.69l30.63-30.63A58.3,58.3,0,0,0,494.91,374.17Z"/></svg>