<svg id="Layer_1" data-name="Layer 1" xmlns="http://www.w3.org/2000/svg" viewBox="0 0 512 353"><title>email</title><path d="M513,91.87A10.87,10.87,0,0,0,502.13,81H11.87A10.87,10.87,0,0,0,1,91.87V423.13A10.87,10.87,0,0,0,11.87,434H502.13A10.87,10.87,0,0,0,513,423.13V91.87ZM491,412H23V103H491V412Z" transform="translate(-1 -81)"/><path d="M71.32,176.66L251.86,267a10.88,10.88,0,0,0,9.72,0l180.54-90.35a10.87,10.87,0,0,0-9.72-19.44L256.73,245.13,81,157.21A10.87,10.87,0,0,0,71.32,176.66Z" transform="translate(-1 -81)"/></svg>