<svg id="Layer_1" data-name="Layer 1" xmlns="http://www.w3.org/2000/svg" viewBox="0 0 512 512"><title>dong_basis_el_stpris</title><path d="M256,297a20.48,20.48,0,0,0-10.25,38.23v54a10.25,10.25,0,0,0,20.5,0v-54A20.48,20.48,0,0,0,256,297Z"/><path d="M430.25,194.5H379V133a123,123,0,0,0-246,0v61.5H81.75A10.24,10.24,0,0,0,71.5,204.75v287A10.24,10.24,0,0,0,81.75,502h348.5a10.24,10.24,0,0,0,10.25-10.25v-287A10.24,10.24,0,0,0,430.25,194.5ZM153.5,133a102.5,102.5,0,0,1,205,0v61.5h-205V133ZM420,481.5H92V215H420V481.5Z"/></svg>