<svg id="Layer_1" data-name="Layer 1" xmlns="http://www.w3.org/2000/svg" viewBox="0 0 499.63 499.65"><defs><style>.cls-1{fill:#0f0e0e;}</style></defs><title>greenpower</title><path class="cls-1" d="M157.13,165.06a10.32,10.32,0,0,0,5.17-1.39A712,712,0,0,1,255.79,120c-6.36,24-4.63,42.27,5.2,55.4,9.5,12.68,25.71,19.09,48.3,19.09,4,0,8.24-.2,12.66-0.61,48.32-4.39,127.2-65.67,144.77-124.7a10.48,10.48,0,0,0-9.19-13.44C429,53.62,406.12,41.54,384,29.84,358.66,16.45,334.65,3.89,305,6.53h0c-27.84,2.56-47,12.9-55.51,29.95-8,16.15-5.65,36.7,7,61.21-54.67,19.43-101.16,45.91-104.56,47.86A10.46,10.46,0,0,0,157.13,165.06Zm111-119.26c6.75-13.57,27.18-17.4,38.77-18.45,23.56-2.14,43.91,8.59,67.4,21,19.64,10.37,41.51,21.94,68,26.58-21.34,46.79-85,94.78-122.28,98.17-14.86,1.34-34.27.71-42.44-10.21-7.11-9.51-6.15-27.24,2.72-51.37,34.86-11,70.92-17.6,98.11-10.95a10.46,10.46,0,0,0,4.88-20.33c-30.55-7.34-69.55-.66-106.8,10.8C265.94,71.65,263,56.1,268.13,45.8Zm-74.58,334.6H162.32a10.45,10.45,0,0,0,0,20.9h31.23A10.45,10.45,0,0,0,193.55,380.41Zm0,41.8H162.32a10.45,10.45,0,0,0,0,20.91h31.23A10.45,10.45,0,0,0,193.55,422.21Zm124.91-41.8H287.23a10.45,10.45,0,0,0,0,20.9h31.23A10.45,10.45,0,0,0,318.45,380.41Zm0,41.8H287.23a10.45,10.45,0,0,0,0,20.91h31.23A10.45,10.45,0,0,0,318.45,422.21Zm93.68-20.9h31.23a10.45,10.45,0,0,0,0-20.9H412.13A10.45,10.45,0,0,0,412.13,401.31Zm0,41.81h31.23a10.45,10.45,0,0,0,0-20.91H412.13A10.45,10.45,0,0,0,412.13,443.11Zm88.49-211.38a10.3,10.3,0,0,0-10.4,0L381.28,294.5V241.27a10.47,10.47,0,0,0-5.15-9,10.27,10.27,0,0,0-10.36-.08L256,294.2V240.78A10.4,10.4,0,0,0,239.92,232l-96.53,63L106.59,117a10.42,10.42,0,0,0-10.2-8.33H46.52a10.42,10.42,0,0,0-10.31,9l-30,214.79V495.38A10.42,10.42,0,0,0,16.6,505.83H495.4a10.42,10.42,0,0,0,10.41-10.45V240.78A10.45,10.45,0,0,0,500.62,231.73ZM485,484.92H27l-0.09-151L55.57,129.56H87.92L126.1,314.2A10.39,10.39,0,0,0,142,320.84L235.18,260v52.06a10.4,10.4,0,0,0,15.51,9.1l109.77-62v53.41a10.41,10.41,0,0,0,15.59,9.05L485,258.82v226.1Z" transform="translate(-6.19 -6.17)"/></svg>