<svg id="Layer_1" data-name="Layer 1" xmlns="http://www.w3.org/2000/svg" viewBox="0 0 447.56 490.09"><title>head</title><path d="M450.56,212.27c-6.13-10.73-14.54-25.4-14.77-29.67C435.78,75.15,336,11,239.47,11,123.25,11,32.22,101.21,32.22,216.44c0,75.28,26.23,128.51,80.15,162.51V490.83A10.23,10.23,0,0,0,122.63,501H327.9a10.23,10.23,0,0,0,10.26-10.21V430.05c36.25-.4,59.53-4.35,75.31-20.06,17.14-17,20.16-68.28,20.61-92.47,6.34,0.1,14.53.14,21.43-.14a26,26,0,0,0,20-10.61c3.83-5.42,3.93-11.15,4-15.32l0.09-2.67C481.31,266,465,237.45,450.56,212.27Zm8.64,75L459,291.08a17.35,17.35,0,0,1-.32,4,5.62,5.62,0,0,1-4,1.87c-12.88.54-30.37-.14-30.44-0.12a10.25,10.25,0,0,0-10.64,10.31c0.31,30.35-4,77.83-14.64,88.4-10.81,10.73-28.48,14.3-71,14.1-3.15-.28-5.35,1.06-7.29,3a10.2,10.2,0,0,0-3,7.24v60.76H132.89V373.22a10.18,10.18,0,0,0-5-8.77c-50.55-29.83-75.11-78.23-75.11-148,0-103.78,82-185.06,186.72-185.06,86.41,0,175.79,56.57,175.79,151.24,0,8.82,6.31,20.26,17.46,39.74C444.4,242.78,460.39,270.72,459.2,287.31ZM309.55,90.68A10.22,10.22,0,0,0,301,92.92c-17.72,14.91-38,21-57.55,26.84-21.81,6.52-44.36,13.28-60.6,32.33-17.41,20.38-24.17,39.63-20.07,57.17,3.26,14,13.35,25.94,30,35.59-28,48.74-37,88.79-37.55,91.42a10.26,10.26,0,0,0,20.07,4.31c0.13-.59,8.11-36.1,32.56-80.37,9.54,14.89,21.2,23.38,34.8,25.31a41.24,41.24,0,0,0,5.66.4c17.68,0,36.93-11.27,54.82-32.25,26.2-30.71,37.48-112.73,13.56-157.72A10.3,10.3,0,0,0,309.55,90.68ZM287.46,240.47c-14.87,17.43-30.08,26.38-41.94,24.83-9.58-1.36-18.16-10-25.55-25.51a340.69,340.69,0,0,1,59.63-70.63,10.2,10.2,0,0,0,.76-14.44,10.31,10.31,0,0,0-14.49-.76A362.69,362.69,0,0,0,203.4,227.4c-11.75-6.71-18.7-14.34-20.66-22.75-3.17-13.6,6.8-28.92,15.71-39.37h0c12.31-14.44,30.18-19.78,50.87-26,17.07-5.1,36-10.79,54-22.63C316.48,155.81,306.82,217.75,287.46,240.47Z" transform="translate(-32.22 -10.96)"/></svg>