<svg id="Layer_1" data-name="Layer 1" xmlns="http://www.w3.org/2000/svg" viewBox="0 0 509.78 493.27"><title>home</title><path d="M506.23,155.55L278.43,18.62l-14.94-9A12,12,0,0,0,258.94,8l-0.19,0c-0.45-.06-0.89-0.21-1.34-0.24a10.74,10.74,0,0,0-6.06,1.77L205.27,37.07,251.14,9.56a11.54,11.54,0,0,1,1.41-.72,12.22,12.22,0,0,0-1.46.73L8,155.23a12,12,0,0,0,6.22,22.32,10.36,10.36,0,0,0,5.7-1.71L40,163.54V487.91C40,494.55,46.31,501,53,501H461.54c6.64,0,11.46-6.45,11.46-13.09V163.66l20.58,12.18a12.13,12.13,0,0,0,16.62-4A11.77,11.77,0,0,0,506.23,155.55ZM447,477H309V337H202V477H64V149.13l27-16.05L255.66,33.89,447,149.24V477Z" transform="translate(-2.19 -7.73)"/></svg>