<svg id="Layer_1" data-name="Layer 1" xmlns="http://www.w3.org/2000/svg" viewBox="0 0 379.16 505.54"><defs><style>.cls-1{fill:#f0f1f3;}</style></defs><title>hourglass</title><path class="cls-1" d="M434.55,488.2h-31.6V393.42A147.68,147.68,0,0,0,310.21,256.5a147.67,147.67,0,0,0,92.74-136.92V24.8h31.6a10.53,10.53,0,0,0,0-21.07H76.45a10.53,10.53,0,0,0,0,21.07h31.6v94.79A147.67,147.67,0,0,0,200.79,256.5a147.68,147.68,0,0,0-92.74,136.92V488.2H76.45a10.53,10.53,0,0,0,0,21.07H434.55A10.53,10.53,0,0,0,434.55,488.2ZM129.11,24.8H381.89v94.79a125.7,125.7,0,0,1-23.79,73.73H152.91a125.7,125.7,0,0,1-23.79-73.73V24.8ZM172,214.37H339A126.13,126.13,0,0,1,172,214.37ZM255.5,267A126.53,126.53,0,0,1,381.89,393.42V404H323.05l-60.11-60.11a10.51,10.51,0,0,0-14.89,0L187.95,404H129.11V393.42A126.53,126.53,0,0,1,255.5,267ZM129.11,488.2V425h63.19a10.53,10.53,0,0,0,7.45-3.08l55.75-55.75,55.75,55.75a10.53,10.53,0,0,0,7.45,3.08h63.19V488.2H129.11Z" transform="translate(-65.92 -3.73)"/></svg>