<svg id="Layer_1" data-name="Layer 1" xmlns="http://www.w3.org/2000/svg" viewBox="0 0 486.9 486.92"><title>houselightning</title><path d="M428.44,286.43a10.14,10.14,0,0,0-10.14,10.15v182.6H316.86v-91.3a10.14,10.14,0,0,0-10.14-10.15H205.28a10.14,10.14,0,0,0-10.14,10.15v91.3H93.7V286.43a10.14,10.14,0,0,0-20.29,0V489.32a10.13,10.13,0,0,0,10.14,10.14H205.28a10.13,10.13,0,0,0,10.14-10.14V398h81.15v91.3a10.13,10.13,0,0,0,10.14,10.14H428.44a10.13,10.13,0,0,0,10.14-10.14V296.58A10.14,10.14,0,0,0,428.44,286.43Zm68-17.32-39.94-39.94a10.14,10.14,0,0,0-14.34,14.35l39.94,39.94A10.15,10.15,0,1,0,496.48,269.11ZM280.55,81.84A10.14,10.14,0,1,0,294.89,67.5L263.17,35.8a10.15,10.15,0,0,0-14.34,0L15.52,269.11a10.15,10.15,0,0,0,14.34,14.35L256,57.31ZM261.92,210.47a10.13,10.13,0,0,0,8.72,5h60.5l-58,142.28A10.14,10.14,0,0,0,290,368.36L488.45,151.25a10.15,10.15,0,0,0-7.49-17H404.6L470.54,28a10.14,10.14,0,0,0-8.62-15.49H369.84a10.14,10.14,0,0,0-8.91,5.31l-99.2,182.6A10.13,10.13,0,0,0,261.92,210.47ZM375.87,32.83h67.82L377.75,139.06a10.15,10.15,0,0,0,8.62,15.5H458L313.36,312.75,355.62,209.1a10.13,10.13,0,0,0-9.39-14H287.7Z" transform="translate(-12.55 -12.54)"/></svg>