<svg id="Layer_1" data-name="Layer 1" xmlns="http://www.w3.org/2000/svg" viewBox="0 0 405.46 374.79"><title>linkedIn</title><path d="M150.21,443.39H53.8V198.46h96.41V443.39Zm-48.4-282.61h-0.57c-29.13,0-48-22.26-48-46.76,0-25,19.43-45.42,49.11-45.42s48,21.05,48.56,46.09C150.95,139.18,132.1,160.79,101.82,160.79Zm221.94,113c-21.31,0-38.56,16.88-38.56,37.68V443.39H188.78s1.13-226.09,0-244.93h96.41v28s29.85-27.22,75.94-27.22c57.11,0,97.6,40.4,97.6,118.79V443.39H362.32V311.5C362.32,290.71,345.05,273.83,323.75,273.83Z" transform="translate(-53.27 -68.61)"/></svg>