<svg id="Layer_1" data-name="Layer 1" xmlns="http://www.w3.org/2000/svg" viewBox="0 0 497.81 498.16"><defs><style>.cls-1{fill:#0a0a0a;}</style></defs><title>link</title><path class="cls-1" d="M481.24,70.61L440.56,29.84C410.09-.72,356.49-0.72,326,29.84l-91.76,92a58.17,58.17,0,0,0,0,82l2,2a11.58,11.58,0,1,0,16.32-16.44l-2-2a34.9,34.9,0,0,1,0-49.22l91.76-92c21.74-21.82,60.07-21.82,81.82,0L464.87,87a58.2,58.2,0,0,1,0,82l-91.76,92A34.67,34.67,0,0,1,324,261l-2-2a11.58,11.58,0,0,0-16.36,16.4l2,2a57.83,57.83,0,0,0,81.82,0l91.76-92A81.47,81.47,0,0,0,481.24,70.61ZM275.75,305.39a11.59,11.59,0,0,0-16.36,16.41l2,2a34.89,34.89,0,0,1,0,49.21l-91.77,92c-21.72,21.81-60.06,21.81-81.81,0L47.12,424.21a58.21,58.21,0,0,1,0-82l91.76-92a34.69,34.69,0,0,1,49.11,0l2,2a11.58,11.58,0,1,0,16.32-16.45l-2-2a57.83,57.83,0,0,0-81.82,0l-91.77,92a81.49,81.49,0,0,0,0,114.83l40.67,40.76a81,81,0,0,0,114.55,0l91.76-92a58.17,58.17,0,0,0,0-82ZM157.82,354a11.54,11.54,0,0,0,16.36,0l180-180.44a11.58,11.58,0,0,0-16.36-16.41l-180,180.44A11.61,11.61,0,0,0,157.82,354Z" transform="translate(-7.09 -6.92)"/></svg>