<?xml version="1.0" encoding="utf-8"?>
<!-- Generator: Adobe Illustrator 19.2.1, SVG Export Plug-In . SVG Version: 6.00 Build 0)  -->
<svg version="1.1" id="Layer_1" xmlns="http://www.w3.org/2000/svg" xmlns:xlink="http://www.w3.org/1999/xlink" x="0px" y="0px"
	 viewBox="0 0 512 512" style="enable-background:new 0 0 512 512;" xml:space="preserve">
<style type="text/css">
	.st0{fill:#231F20;}
</style>
<g>
	<path class="st0" d="M506,270.8c-0.2,0.2-0.3,0.4-0.5,0.6C505.6,271.2,505.8,271,506,270.8z"/>
	<path class="st0" d="M504.9,272.1c-0.2,0.3-0.5,0.5-0.7,0.8C504.4,272.6,504.7,272.4,504.9,272.1z"/>
	<path class="st0" d="M507,269.4c-0.3,0.5-0.6,0.9-1,1.4C506.3,270.4,506.6,269.9,507,269.4z"/>
	<path class="st0" d="M505.5,271.4c-0.2,0.2-0.4,0.5-0.6,0.7C505.1,271.9,505.3,271.6,505.5,271.4z"/>
	<path class="st0" d="M502.7,274.3c0.1-0.1,0.1-0.1,0.2-0.2c-0.2,0.2-0.5,0.4-0.7,0.6L502.7,274.3z"/>
	<path class="st0" d="M504.2,272.9c-0.1,0.1-0.3,0.3-0.4,0.4C503.9,273.2,504,273,504.2,272.9z"/>
	<path class="st0" d="M503.8,273.3c-0.3,0.3-0.6,0.6-0.9,0.8C503.2,273.9,503.5,273.6,503.8,273.3z"/>
	<path class="st0" d="M511,254.7c0-0.1,0-0.2,0-0.2c0-0.4,0-0.7-0.1-1.1c0-0.1,0-0.1,0-0.2c0-0.4-0.1-0.7-0.1-1.1c0-0.1,0-0.1,0-0.2
		c-0.1-0.4-0.1-0.7-0.2-1.1c0-0.1,0-0.1,0-0.2c-0.1-0.4-0.2-0.7-0.3-1.1c0-0.1,0-0.1,0-0.2c-0.1-0.4-0.2-0.7-0.3-1.1
		c0-0.1,0-0.1-0.1-0.2c-0.1-0.3-0.2-0.7-0.4-1c0-0.1,0-0.1-0.1-0.2c-0.1-0.3-0.3-0.7-0.4-1c0-0.1-0.1-0.1-0.1-0.2
		c-0.1-0.3-0.3-0.6-0.5-1c0-0.1-0.1-0.1-0.1-0.2c-0.2-0.3-0.3-0.6-0.5-1c0,0-0.1-0.1-0.1-0.1c-0.2-0.3-0.4-0.7-0.6-1c0,0,0,0,0,0
		c-0.3-0.5-0.6-0.9-1-1.4c-0.2-0.2-0.3-0.4-0.5-0.6c-0.2-0.2-0.4-0.5-0.6-0.7c-0.2-0.3-0.5-0.5-0.7-0.8c-0.1-0.1-0.3-0.3-0.4-0.4
		c-0.3-0.3-0.6-0.6-0.9-0.8c-0.1-0.1-0.1-0.1-0.2-0.2l-0.5-0.5c0.2,0.1,0.3,0.3,0.5,0.5l-0.5-0.3L308,67.4
		c-10.1-8.8-25.5-7.9-34.3,2.2c-8.9,10.1-7.8,25.6,2.3,34.5L421.9,232H24.3C10.9,232,0,242.6,0,256s10.9,24,24.3,24h397.6L276,407.8
		c-10.1,8.9-11.1,24.3-2.3,34.4c4.8,5.5,11.5,8.4,18.3,8.4c5.7,0,11.4-2,16-6l194-170c0,0,0.1,0,0.1-0.1l0.5-0.4
		c1.7-1.4,3.1-3,4.3-4.8c0,0,0,0,0,0c0.2-0.3,0.4-0.7,0.6-1c0,0,0.1-0.1,0.1-0.1c0.2-0.3,0.4-0.6,0.5-1c0-0.1,0.1-0.1,0.1-0.2
		c0.2-0.3,0.3-0.6,0.5-1c0-0.1,0.1-0.1,0.1-0.2c0.1-0.3,0.3-0.7,0.4-1c0-0.1,0-0.1,0.1-0.2c0.1-0.3,0.3-0.7,0.4-1
		c0-0.1,0-0.1,0.1-0.2c0.1-0.4,0.2-0.7,0.3-1.1c0-0.1,0-0.1,0-0.2c0.1-0.4,0.2-0.7,0.3-1.1c0-0.1,0-0.1,0-0.2
		c0.1-0.4,0.1-0.7,0.2-1.1c0-0.1,0-0.1,0-0.2c0.1-0.4,0.1-0.7,0.1-1.1c0-0.1,0-0.1,0-0.2c0-0.3,0.1-0.7,0.1-1.1c0-0.1,0-0.2,0-0.2
		c0-0.4,0-0.9,0-1.3S511,255.1,511,254.7z"/>
</g>
</svg>
