<svg id="Layer_1" data-name="Layer 1" xmlns="http://www.w3.org/2000/svg" viewBox="0 0 393.73 449.92"><defs><style>.cls-1{fill:#020202;}</style></defs><title>locklightning</title><path class="cls-1" d="M231.24,387.23a9.46,9.46,0,0,0,9.56-9.37v-49.4a18.68,18.68,0,0,0,9.56-16.21,19.13,19.13,0,0,0-38.25,0,18.68,18.68,0,0,0,9.56,16.21v49.4A9.46,9.46,0,0,0,231.24,387.23Zm0-75,9.56,0h-9.56v0ZM387.11,256a9.4,9.4,0,0,0-9.51,9.3V462.36l-299.34-.15V218.5H210.93a9.37,9.37,0,1,0,0-18.74h-75.3V143.52c0-51.68,42.9-93.73,95.62-93.73A96.56,96.56,0,0,1,279.93,62.9,9.71,9.71,0,0,0,293,59.66a9.27,9.27,0,0,0-3.32-12.86A115.78,115.78,0,0,0,231.24,31C168,31,116.5,81.49,116.5,143.52v56.24H68.7a9.46,9.46,0,0,0-9.56,9.37V471.59A9.46,9.46,0,0,0,68.7,481H387.11a9.4,9.4,0,0,0,9.51-9.3V265.3A9.4,9.4,0,0,0,387.11,256Zm64.82-107.16a9.61,9.61,0,0,0-8.63-5.32h-72l62.17-98.16a9.19,9.19,0,0,0,.22-9.5A9.56,9.56,0,0,0,425.35,31h-86.8a9.58,9.58,0,0,0-8.4,4.9L236.64,204.65a9.23,9.23,0,0,0,.19,9.27A9.57,9.57,0,0,0,245,218.5H305L285,333.18a9.33,9.33,0,0,0,5.51,10.12,9.75,9.75,0,0,0,3.92.82,9.61,9.61,0,0,0,7.45-3.5L450.75,158.76A9.21,9.21,0,0,0,451.93,148.84ZM310.09,300.7l15.63-90a9.24,9.24,0,0,0-2.13-7.63,9.64,9.64,0,0,0-7.3-3.32H261.12l83.12-150h63.93L346,148a9.19,9.19,0,0,0-.22,9.5,9.56,9.56,0,0,0,8.35,4.82h69.25Z" transform="translate(-59.13 -31.04)"/></svg>