<svg id="Layer_1" data-name="Layer 1" xmlns="http://www.w3.org/2000/svg" viewBox="0 0 491.77 491.77"><title>people</title><path d="M92.08,276.49a51.23,51.23,0,1,0-51.23-51.23A51.29,51.29,0,0,0,92.08,276.49Zm0-82a30.73,30.73,0,1,1-30.74,30.73A30.77,30.77,0,0,1,92.08,194.53ZM163.79,297H20.36a10.24,10.24,0,0,0-10.25,10.25c0,48.95,3.28,94,41,108.87v75.54a10.24,10.24,0,0,0,10.25,10.25h61.47a10.24,10.24,0,0,0,10.25-10.25V416.1c37.7-14.86,41-59.93,41-108.87A10.24,10.24,0,0,0,163.79,297ZM120.26,398.73a10.26,10.26,0,0,0-7.69,9.93v72.73h-41V408.66a10.26,10.26,0,0,0-7.69-9.93C37.74,392,31.4,364.9,30.68,317.47h122.8C152.76,364.9,146.42,392,120.26,398.73ZM419.92,276.49a51.23,51.23,0,1,0-51.23-51.23A51.29,51.29,0,0,0,419.92,276.49Zm0-82a30.73,30.73,0,1,1-30.74,30.73A30.77,30.77,0,0,1,419.92,194.53ZM491.64,297H348.21A10.24,10.24,0,0,0,338,307.22c0,48.95,3.28,94,41,108.87v75.54a10.24,10.24,0,0,0,10.25,10.25h61.47a10.24,10.24,0,0,0,10.25-10.25V416.1c37.7-14.86,41-59.93,41-108.87A10.24,10.24,0,0,0,491.64,297ZM448.11,398.73a10.26,10.26,0,0,0-7.69,9.93v72.73h-41V408.66a10.26,10.26,0,0,0-7.69-9.93c-26.15-6.72-32.5-33.83-33.22-81.26h122.8C480.6,364.9,474.26,392,448.11,398.73ZM256,112.56a51.22,51.22,0,1,0-51.23-51.22A51.29,51.29,0,0,0,256,112.56Zm0-82a30.74,30.74,0,1,1-30.74,30.74A30.77,30.77,0,0,1,256,30.6Zm71.72,102.45H184.28A10.24,10.24,0,0,0,174,143.3c0,48.94,3.28,94,41,108.87v75.53A10.24,10.24,0,0,0,225.26,338h61.47A10.24,10.24,0,0,0,297,327.71V252.18c37.7-14.86,41-59.93,41-108.87A10.24,10.24,0,0,0,327.72,133.06ZM284.18,234.81a10.26,10.26,0,0,0-7.69,9.93v72.74h-41V244.73a10.26,10.26,0,0,0-7.69-9.93c-26.15-6.72-32.5-33.82-33.22-81.26H317.4C316.68,201,310.34,228.08,284.18,234.81Z" transform="translate(-10.12 -10.12)"/></svg>