<svg id="Layer_1" data-name="Layer 1" xmlns="http://www.w3.org/2000/svg" viewBox="0 0 374.56 398.34"><title>piglightning</title><path d="M435.53,244.47a7.8,7.8,0,0,0-7.8,7.8,23.45,23.45,0,0,1-16,22.19A114.51,114.51,0,0,0,404.29,242l-11.64,14.22a98.44,98.44,0,0,1,3.87,27.26c0,64.55-63,117.05-140.46,117.05-57.67,0-108.84-28.65-130.36-73.37a7.56,7.56,0,0,0-7-4.17H85V276h23.94a7.93,7.93,0,0,0,7.71-6.81c4.74-31.88,25.54-61.19,57-80.26a7.83,7.83,0,0,0,3.69-7.8,61.92,61.92,0,0,0-18.88-36.56c20.12-5.31,42.19,4.16,52.45,22.29a7.74,7.74,0,0,0,8.52,3.77,168.17,168.17,0,0,1,33.16-4.14l8.63-15.58c-1.73,0-3.47-.08-5.21-0.08a180.85,180.85,0,0,0-34.6,3.42A62.27,62.27,0,0,0,139,135.83a7.81,7.81,0,0,0,0,13.51,47.18,47.18,0,0,1,22,29C130.19,198.53,109.23,228,102.42,260H76.57A7.67,7.67,0,0,0,69,267.88v62.43A7.5,7.5,0,0,0,76.57,338h37.29C127.61,364,151,384.85,178,398.45v48.91a8,8,0,0,0,16,0V405.14a182.26,182.26,0,0,0,125-.08v42.3a8,8,0,0,0,16,0v-49c44-21.86,74.5-61.75,77.36-107.79a38.88,38.88,0,0,0,31.21-38.27A8,8,0,0,0,435.53,244.47Z" transform="translate(-69 -56.83)"/><path d="M442.48,174.63a9.61,9.61,0,0,0-8.63-5.32h-72L424,71.15a9.19,9.19,0,0,0,.22-9.5,9.56,9.56,0,0,0-8.35-4.81H329.1a9.58,9.58,0,0,0-8.4,4.9L227.19,230.45a9.23,9.23,0,0,0,.19,9.27,9.57,9.57,0,0,0,8.22,4.58H295.5L275.6,359a9.33,9.33,0,0,0,5.51,10.12,9.75,9.75,0,0,0,3.92.82,9.61,9.61,0,0,0,7.45-3.5L441.3,184.55A9.21,9.21,0,0,0,442.48,174.63ZM300.64,326.49l15.63-90a9.24,9.24,0,0,0-2.13-7.63,9.64,9.64,0,0,0-7.3-3.32H251.67l83.12-150h63.93l-62.17,98.17a9.19,9.19,0,0,0-.22,9.5,9.56,9.56,0,0,0,8.35,4.82h69.25Z" transform="translate(-69 -56.83)"/><path d="M162.75,273.66a15.13,15.13,0,1,1,15.13-15.13A15.15,15.15,0,0,1,162.75,273.66Zm0-15.14v0h0Z" transform="translate(-69 -56.83)"/></svg>