<svg id="Layer_1" data-name="Layer 1" xmlns="http://www.w3.org/2000/svg" viewBox="0 0 498.65 498.64"><title>products</title><path d="M498.47,141c-1.48-.55-15.22-5.07-30.27,5.48-23.13,16.22-35.08,58.58-35.57,125.93l-33.11,33.11,6.19-27c5.25-22-4.42-37-16.35-42.08-11.06-4.69-26.89-2-37.56,14.58-14.35,22.3-32.28,82.43-33,85a10.31,10.31,0,0,0-.43,3v83.25H307.94a10.38,10.38,0,0,0-10.39,10.39v62.33a10.38,10.38,0,0,0,10.39,10.39H432.6A10.38,10.38,0,0,0,443,494.93V432.6a10.38,10.38,0,0,0-10.39-10.39H422.22v-17.1c13.25-13.12,65.35-64.72,80.06-79.44a10.37,10.37,0,0,0,3-7.34V150.81A10.39,10.39,0,0,0,498.47,141Zm-76.25,343.5H318.33V443H422.22v41.55ZM484.55,314c-20.59,20.54-80,79.38-80,79.38a10.42,10.42,0,0,0-3.08,7.38v21.43H339.11V340.48c5.32-17.68,19.86-62.21,30.17-78.21,3.61-5.63,8.28-8.25,11.91-6.7s6.74,8,4.28,18.23l-14.28,62.33a10.39,10.39,0,0,0,17.47,9.67l61.68-61.68a10.37,10.37,0,0,0,3-7.34c0-81.1,16.4-105.5,26.17-112.82a19.12,19.12,0,0,1,5-2.74V314ZM204.06,422.21H193.67V339a10.31,10.31,0,0,0-.43-3c-0.75-2.55-18.69-62.68-33-85-10.69-16.58-26.46-19.28-37.56-14.58-11.93,5.09-21.61,20.09-16.37,42l6.21,27.12L79.37,272.45C78.89,205.1,66.94,162.74,43.81,146.52,28.77,136,15,140.5,13.53,141a10.39,10.39,0,0,0-6.86,9.77V318.33a10.35,10.35,0,0,0,3.84,8.06C28,340.65,77.37,392,89.78,404.94v17.27H79.4A10.38,10.38,0,0,0,69,432.6v62.33A10.38,10.38,0,0,0,79.4,505.32H204.06a10.38,10.38,0,0,0,10.39-10.39V432.6A10.38,10.38,0,0,0,204.06,422.21ZM27.45,313.51V161.22a18.76,18.76,0,0,1,5,2.73c9.78,7.33,26.17,31.72,26.17,112.82a10.37,10.37,0,0,0,3,7.34l61.68,61.68a10.39,10.39,0,0,0,17.47-9.67l-14.3-62.42c-2.44-10.16.53-16.53,4.3-18.14s8.3,1.08,11.91,6.7c10.31,16,24.85,60.52,30.17,78.21v81.73H110.56V400.79a10.35,10.35,0,0,0-2.86-7.16C105.29,391.08,51.17,334.22,27.45,313.51Zm166.22,171H89.78V443H193.67v41.55Zm187-280.49V79.39c0-.28,0-0.55-0.05-0.82s0-.31,0-0.47a10.35,10.35,0,0,0-.26-1.35h0a10.37,10.37,0,0,0-.43-1.27c-0.07-.16-0.15-0.32-0.23-0.47s-0.23-.5-0.36-0.73-0.23-.37-0.35-0.55-0.25-.39-0.39-0.57-0.3-.36-0.45-0.54-0.28-.33-0.43-0.49-0.34-.32-0.52-0.48-0.33-.29-0.5-0.43-0.37-.27-0.57-0.4-0.23-.17-0.35-0.25l-0.25-.13-0.24-.15L261,7.94a10.42,10.42,0,0,0-9.94,0L136.75,70.27l-0.08.05-0.06,0c-0.15.09-.29,0.19-0.43,0.28s-0.45.28-.66,0.43-0.38.32-.57,0.48-0.32.26-.46,0.4-0.39.42-.58,0.63-0.22.24-.33,0.37-0.35.49-.52,0.73-0.17.25-.25,0.37-0.28.52-.41,0.78-0.15.28-.21,0.43-0.19.5-.28,0.76-0.13.35-.18,0.53-0.11.46-.16,0.7-0.1.44-.13,0.66,0,0.41-.05.61-0.05.44-.06,0.66c0,0,0,.08,0,0.13s0,0.06,0,.09V204.06a10.35,10.35,0,0,0,5.05,8.91l103.89,62.33a10.32,10.32,0,0,0,5.34,1.48,10.43,10.43,0,0,0,4.65-1.09l124.66-62.33A10.41,10.41,0,0,0,380.66,204.06ZM235.22,248l-83.11-49.87V97.75l83.11,49.85V248Zm10.84-118.16L162.63,79.82,256,28.89,347.84,79Zm113.83,67.75L256,249.58V148.15L359.89,96.2V197.63Z" transform="translate(-6.68 -6.68)"/></svg>