<svg id="Layer_1" data-name="Layer 1" xmlns="http://www.w3.org/2000/svg" viewBox="0 0 509.59 383.79"><title>quote</title><path d="M104.28,251c58.43-12.6,114.56,25.2,114.56,102,0,60.72-48.12,97.38-104.25,97.38-57.28,0-105.4-45.83-112.27-115.71C-6.84,227,51.58,91.78,222.28,66.57l14.89,65.3C176.46,147.91,113.45,174.26,104.28,251ZM492.66,353c0,60.72-49.26,97.38-104.25,97.38-57.28,0-106.54-45.83-112.27-115.71C267,227,324.25,91.78,496.09,66.57L511,131.87c-60.72,16-126,42.39-132.9,119.15C436.52,238.42,492.66,276.23,492.66,353Z" transform="translate(-1.4 -66.57)"/></svg>