<svg id="Layer_1" data-name="Layer 1" xmlns="http://www.w3.org/2000/svg" viewBox="0 0 472.73 453.05"><title>savemoney</title><path d="M489.48,369c-23.12-23.25-43.07-29.68-69.15-22.2L348,370.91c-2.32-12.93-13.51-24.63-32.92-24.63H260c-14.64-13.87-47.84-39.6-92.62-39.6H118.12v-9.9a9.87,9.87,0,0,0-9.85-9.9H29.48a9.87,9.87,0,0,0-9.85,9.9V456a9.87,9.87,0,0,0,9.85,9.9h78.79a9.87,9.87,0,0,0,9.85-9.9V439.25c16.59,5.64,31.3,10.77,44.44,15.36,51.69,18,80.52,27.92,106.74,27.92,32,0,60-14.71,120.9-47.26,25.24-13.48,56.65-30.28,96.74-50.43A9.94,9.94,0,0,0,489.48,369ZM98.42,446.12H39.33V306.69H98.42V446.12Zm282.51-28.33C276.76,473.49,276.78,473.53,169,435.9c-14.82-5.18-31.64-11-50.9-17.54V326.49h49.24c40.76,0,70.69,25.67,81.67,36.7a9.81,9.81,0,0,0,7,2.9h59.09c10.12,0,13.7,5.34,13.7,9.9s-3.58,9.9-13.7,9.9H206.76a9.9,9.9,0,0,0,0,19.8H315.09c12.66,0,21.81-5,27.3-12l83.75-27.93c13-3.74,24.18-3.51,39,8C431,391,403.5,405.74,380.94,417.79Zm-16.6-249.71c38,0,68.94-31.09,68.94-69.31s-30.93-69.3-68.94-69.3S295.4,60.57,295.4,98.77,326.33,168.08,364.34,168.08Zm0-118.81a49.51,49.51,0,1,1-49.24,49.5A49.43,49.43,0,0,1,364.34,49.27ZM265.85,306.69c38,0,68.94-31.09,68.94-69.3s-30.93-69.3-68.94-69.3-68.94,31.09-68.94,69.3S227.84,306.69,265.85,306.69Zm0-118.81a49.5,49.5,0,1,1-49.24,49.5A49.43,49.43,0,0,1,265.85,187.88Zm0,79.2a9.87,9.87,0,0,0,9.85-9.9v-39.6a9.85,9.85,0,1,0-19.7,0v39.6A9.87,9.87,0,0,0,265.85,267.08Zm98.49-138.6a9.87,9.87,0,0,0,9.85-9.9V79a9.85,9.85,0,1,0-19.7,0v39.6A9.87,9.87,0,0,0,364.34,128.48Z" transform="translate(-19.63 -29.48)"/></svg>