<svg id="Layer_1" data-name="Layer 1" xmlns="http://www.w3.org/2000/svg" viewBox="0 0 509.13 509.13"><title>star</title><path d="M255.5,0.93C115.12,0.93.93,115.13,0.93,255.5S115.12,510.07,255.5,510.07,510.07,395.87,510.07,255.5,395.88,0.93,255.5.93Zm0,487.92c-128.67,0-233.35-104.68-233.35-233.35S126.83,22.15,255.5,22.15,488.85,126.83,488.85,255.5,384.17,488.85,255.5,488.85Z" transform="translate(-0.93 -0.93)"/><path d="M413.8,198.48A10.53,10.53,0,0,0,404,192H304.83l-39.63-89.23c-3.4-7.67-16-7.63-19.39,0L206.17,192H107a10.53,10.53,0,0,0-7.5,18L180,290.49,149.8,401.22a10.6,10.6,0,0,0,16.74,11.15l89-69.18,89,69.18a10.6,10.6,0,0,0,16.74-11.16L331,290.47,411.5,210A10.51,10.51,0,0,0,413.8,198.48ZM311.64,279.79a10.64,10.64,0,0,0-2.73,10.3l23.45,86L262,321.37a10.57,10.57,0,0,0-13,0l-70.35,54.71,23.45-86a10.68,10.68,0,0,0-2.73-10.32L132.61,213h80.46a10.57,10.57,0,0,0,9.69-6.26L255.5,133.1l32.73,73.63a10.58,10.58,0,0,0,9.69,6.27h80.46Z" transform="translate(-0.93 -0.93)"/></svg>