<svg id="Layer_1" data-name="Layer 1" xmlns="http://www.w3.org/2000/svg" viewBox="0 0 501.91 479.32"><title>tv</title><path d="M235.09,183H172.35c-31,0-125.48,0-125.48,52.07V401.67c0,52.07,94.44,52.07,125.48,52.07h62.74c31,0,125.48,0,125.48-52.07V235C360.56,183,266.12,183,235.09,183Zm104.56,218.7c0,20.15-37.14,31.24-104.56,31.24H172.35c-67.42,0-104.56-11.1-104.56-31.24V235c0-20.15,37.14-31.24,104.56-31.24h62.74c67.42,0,104.56,11.1,104.56,31.24V401.67Zm94.11-260.29h-83v-0.06a10.46,10.46,0,0,0-1.09-4.64A104.39,104.39,0,0,0,315.23,97l63.18-62.93a10.43,10.43,0,0,0-14.79-14.73l-67.57,67.3a106,106,0,0,0-80.13,0l-67.55-67.3a10.43,10.43,0,0,0-14.79,14.73L196.75,97a104.37,104.37,0,0,0-34.46,39.63,10.49,10.49,0,0,0-1.09,4.64v0.06h-83C37.89,141.37,5,174.08,5,214.27V422.76c0,40.19,32.84,72.9,73.19,72.9H433.76c40.36,0,73.19-32.71,73.19-72.9V214.27C507,174.08,474.11,141.37,433.76,141.37Zm-216-32.59a10.4,10.4,0,0,0,1-.51,84.65,84.65,0,0,1,73.62-.39,10.38,10.38,0,0,0,2.35,1.17,83.16,83.16,0,0,1,33.73,32.32h-145A83.15,83.15,0,0,1,217.74,108.78Zm268.3,314a52.24,52.24,0,0,1-52.28,52.07H78.24A52.24,52.24,0,0,1,26,422.76V214.27A52.24,52.24,0,0,1,78.24,162.2H433.76A52.24,52.24,0,0,1,486,214.27V422.76Zm-62.74-219a41.66,41.66,0,1,0,41.83,41.66A41.78,41.78,0,0,0,423.3,203.8Zm0,62.49a20.83,20.83,0,1,1,20.91-20.83A20.9,20.9,0,0,1,423.3,266.28Zm0,41.66a41.66,41.66,0,1,0,41.83,41.66A41.78,41.78,0,0,0,423.3,307.94Zm0,62.49a20.83,20.83,0,1,1,20.91-20.83A20.9,20.9,0,0,1,423.3,370.42Z" transform="translate(-5.05 -16.34)"/></svg>