<svg id="Layer_1" data-name="Layer 1" xmlns="http://www.w3.org/2000/svg" viewBox="0 0 443.03 374.38"><title>twitter</title><path d="M477.51,117.36c-16.08,7.57-29.61,7.81-44,.33,18.52-11.68,19.37-19.87,26.06-42a174.56,174.56,0,0,1-57,23C386.3,80.31,363,68.81,337.19,68.81c-49.54,0-89.7,42.36-89.7,94.53a100.39,100.39,0,0,0,2.31,21.55c-74.54-4-140.64-41.57-184.88-98.77a98.19,98.19,0,0,0-12.15,47.52c0,32.8,15.84,61.73,39.9,78.68a86,86,0,0,1-40.61-11.83c0,0.39,0,.78,0,1.19,0,45.79,30.92,84,72,92.67A85.73,85.73,0,0,1,83.49,296c11.43,37.5,44.55,64.85,83.79,65.63-38.38,31.68-86,44.89-132.8,39.13,39.71,26.79,86.84,42.44,137.5,42.44,165,0,255.18-144,255.18-268.89,0-4.1-.06-8.17-0.23-12.24C444.44,148.77,465.49,136.33,477.51,117.36Z" transform="translate(-34.49 -68.81)"/></svg>