<svg id="Layer_1" data-name="Layer 1" xmlns="http://www.w3.org/2000/svg" viewBox="0 0 476.56 497.28"><defs><style>.cls-1{fill:#020202;}</style></defs><title>weather</title><path class="cls-1" d="M162.76,334V59.16a51.8,51.8,0,1,0-103.6,0V334A93.24,93.24,0,1,0,162.76,334ZM111,483.92A72.45,72.45,0,0,1,74.71,348.69a10.34,10.34,0,0,0,5.17-9V59.16a31.08,31.08,0,0,1,62.16,0V339.73a10.34,10.34,0,0,0,5.17,9A72.45,72.45,0,0,1,111,483.92ZM121.32,382.1V162.76a10.36,10.36,0,1,0-20.72,0V382.1A31.08,31.08,0,1,0,121.32,382.1ZM111,421.76a10.36,10.36,0,1,1,10.36-10.36A10.38,10.38,0,0,1,111,421.76ZM256,100a144.45,144.45,0,0,0-43.58,6.68,10.35,10.35,0,1,0,6.23,19.75A124.33,124.33,0,1,1,228,366.22a10.36,10.36,0,0,0-4.69,20.19,145,145,0,0,0,32.68,3.7c80,0,145-65.07,145-145S336,100,256,100Zm0-30.51a10.36,10.36,0,0,0,10.36-10.36V17.72a10.36,10.36,0,1,0-20.72,0V59.16A10.36,10.36,0,0,0,256,69.52Zm153.46,8.54-29.3,29.3A10.36,10.36,0,0,0,394.81,122l29.3-29.3A10.36,10.36,0,0,0,409.46,78.06Zm74.46,157.22H442.48a10.36,10.36,0,1,0,0,20.72h41.44A10.36,10.36,0,1,0,483.92,235.28ZM393,371.09a10.36,10.36,0,1,0-14.65,14.65L407.64,415a10.36,10.36,0,1,0,14.65-14.65ZM256,421.76a10.35,10.35,0,0,0-10.36,10.36v41.44a10.36,10.36,0,0,0,20.72,0V432.12A10.35,10.35,0,0,0,256,421.76Z" transform="translate(-17.72 -7.36)"/></svg>