<svg id="Layer_1" data-name="Layer 1" xmlns="http://www.w3.org/2000/svg" viewBox="0 0 500.94 500.91"><title>worldhand</title><path d="M503.41,384.44c-24.51-24.68-45.6-31.58-73.29-23.57L353.5,386.49c-2.46-13.72-14.33-26.15-34.89-26.15H260.23c-15.52-14.72-50.71-42-98.16-42H109.89V307.77a10.47,10.47,0,0,0-10.44-10.51H16A10.47,10.47,0,0,0,5.53,307.77V476A10.47,10.47,0,0,0,16,486.48H99.46A10.47,10.47,0,0,0,109.89,476v-16.9c21,7.15,39.07,13.56,54.89,19.16,51.54,18.26,80.26,28.23,106.34,28.23,31.73,0,59.54-14.78,119.78-47.44,28.18-15.28,63.26-34.31,109.79-57.73A10.55,10.55,0,0,0,503.41,384.44ZM89,465.46H26.4V318.29H89V465.46Zm292-25C278.36,496.17,278.35,496.17,171.7,458.4c-17.54-6.24-37.87-13.43-61.81-21.54V339.31h52.18c43.19,0,74.92,27.24,86.55,39a10.38,10.38,0,0,0,7.38,3.08h62.62c10.71,0,14.5,5.67,14.5,10.51a9.32,9.32,0,0,1-1.07,4.31c-0.1.17-.19,0.34-0.29,0.51-1.9,3.14-6,5.69-13.14,5.69H203.82a10.51,10.51,0,0,0,0,21h114.8c13.4,0,23.11-5.29,28.93-12.77l88.74-29.69c13.79-3.94,25.62-3.72,41.35,8.48C437.55,409.84,406.48,426.69,381,440.49ZM153.22,269.26a10.55,10.55,0,0,0,4.64-14.1,157.28,157.28,0,0,1-16.65-70.9c0-87,70.22-157.69,156.54-157.69,1.48,0,2.95,0,4.42.07-16.55,7.78-30.74,19-29.32,34.27,1,10.92,6,19.44,14.17,24,6.78,3.82,15.14,4.35,23.61,1.68a133.46,133.46,0,0,1-.49,22.4c-3,.58-6.14,1.3-9.35,2.06-10.56,2.47-23.47,5.5-30.23,1.36a19.47,19.47,0,0,0-5.6-7.44c-8.22-6.79-21.93-8.13-41.85-4.08-44.19,8.87-44.7,66.34-44.7,68.78,0,13.76,6.73,39.78,32.21,39.78,3.94,0,7.88-.23,11.7-0.44,7.71-.47,16.45-1,19.1,1.56,1.48,1.42,2.33,5.18,2.33,10.31a10.54,10.54,0,0,0,3.06,7.43c5.4,5.44,10.89,12.71,11.48,14.5,0,1.17-1.53,4.23-2.54,6.26-2.11,4.25-4.75,9.53-4.75,15.69,0,8.66,15.28,47.06,32.24,47.06,31,0,50.6-14.82,53.6-40.08a78.15,78.15,0,0,0,19.09-14.14c4.51-4.54,6.72-9.44,6.55-14.56-0.24-7.31-5.07-11.9-8.59-15,1.55-1.71,3.43-3.67,5-5.32,13.5-14.15,38.64-40.49,18.83-60.45a10.5,10.5,0,0,0-12-2,22.15,22.15,0,0,1-8.23,2.18c-2.79-10.12-5.73-17.1-8.57-21.93,7.78-3.8,20.57-7.78,33.44-4.49a10.44,10.44,0,0,0,7.21-.8c19-9.58,29.88-27.94,35.75-42.27a157.61,157.61,0,0,1,29,91.34c0,55.27-29.31,107.21-76.49,135.55a10.55,10.55,0,0,0-3.61,14.41,10.38,10.38,0,0,0,14.31,3.66c53.46-32.11,86.66-91,86.66-153.62A178.72,178.72,0,0,0,429.73,65a10.5,10.5,0,0,0-1.82-2,177.63,177.63,0,0,0-77.38-49.34,10.09,10.09,0,0,0-2-.6,175.66,175.66,0,0,0-50.8-7.48c-97.83,0-177.42,80.17-177.42,178.71a178.17,178.17,0,0,0,18.88,80.34A10.37,10.37,0,0,0,153.22,269.26ZM409.65,74.11c-2.71,9.6-10.25,30.51-26.45,40.58-25.25-4.36-50.58,8.29-57.66,17-2.56,3.14-3.73,9.14-2,12.82a12.21,12.21,0,0,0,6.83,5.75c2.24,3.34,5.87,13.13,8.07,22a10.6,10.6,0,0,0,2.75,4.91c6.59,6.61,15.29,7,22.18,5.74-2.76,7.68-14,19.42-19.51,25.24-8.38,8.77-13,13.59-13,20.06,0,7.51,5.25,12.14,8.73,15.19l0.48,0.41a53.41,53.41,0,0,1-16.59,11,10.47,10.47,0,0,0-7.12,10c0,6.29,0,25.13-30.87,26-4.6-4.68-13-21.33-13.61-26,0-1.16,1.53-4.23,2.54-6.26,2.11-4.24,4.75-9.53,4.75-15.69,0-8.77-8.22-19.36-14.69-26.34-0.67-9.31-3.54-16.25-8.72-21.2-9.17-8.73-22.07-8-34.62-7.27-3.43.21-7,.41-10.51,0.41-11,0-11.32-18-11.33-18.72,0-.43.51-42.69,27.93-48.19,16.5-3.35,22.53-1.28,24.08-.51a10.54,10.54,0,0,0,2.77,4.92c14.23,14.29,35.73,9.26,51.44,5.61,5.56-1.29,10.82-2.53,14-2.53a10.46,10.46,0,0,0,10.33-9c4.19-29.48,1.93-47.61-6.69-53.87-4.51-3.31-10.17-3.57-15.59-.88-4.24,2.14-8.15,2.61-10.45,1.34-2.58-1.44-3.31-5.34-3.51-7.56-0.55-5.86,23.26-18.14,52.4-24.69A156.65,156.65,0,0,1,409.65,74.11Z" transform="translate(-5.53 -5.55)"/></svg>