<svg id="Layer_1" data-name="Layer 1" xmlns="http://www.w3.org/2000/svg" viewBox="0 0 821.08 342.64"><defs><style>.cls-1{fill:#fff;}</style></defs><title>youtube</title><path id="u" class="cls-1" d="M151.69,446.5H120.56v-18c-11.8,13.53-21.81,20.36-32.72,20.36-9.57,0-16.22-4.51-19.54-12.67-2-5-3.46-12.7-3.46-24.08V281H96V415.36c0.73,4.6,2.68,6.28,6.64,6.28,6,0,11.35-5.18,17.94-14.47V281h31.14V446.5Z" transform="translate(154.76 -169.22)"/><path id="o" class="cls-1" d="M41.89,335.06c0-17.69-3.55-31-9.83-39.33-8.29-11.32-21.3-16-34.41-16-14.84,0-26.13,4.63-34.41,16-6.38,8.36-9.8,21.79-9.8,39.48l0,58.85c0,17.59,3,29.74,9.42,38,8.28,11.29,21.71,17.26,34.82,17.26s26.78-6,35.07-17.26c6.28-8.28,9.18-20.43,9.18-38v-59ZM10.76,397.34c1.64,16.39-3.44,24.52-13.11,24.52s-14.75-8.13-13.11-24.52V331.78C-17.1,315.4-12,307.71-2.35,307.71s14.77,7.68,13.13,24.07Z" transform="translate(154.76 -169.22)"/><path id="y" class="cls-1" d="M-81,356.37V446.5h-32.78V356.37s-34-110.51-41-131.1h34.41l23,86.32,22.89-86.32H-40Z" transform="translate(154.76 -169.22)"/><path class="cls-1" d="M472,307.31c-4.88,0-10.48,2.58-15.44,7.47l0,99.39c5,5,10.59,7.48,15.47,7.48,8.56,0,12.42-6.28,12.42-22.67V328.51C484.37,312.12,480.51,307.31,472,307.31Z" transform="translate(154.76 -169.22)"/><path class="cls-1" d="M594.17,327c0-15.15-3.91-19.7-13.75-19.7s-14.11,4.18-14.11,19.49v18.13l27.86,0V327Z" transform="translate(154.76 -169.22)"/><path class="cls-1" d="M661.43,243.14s-4.78-33.57-19.45-48.36c-18.61-19.4-39.47-19.5-49-20.63-68.48-4.93-171.2-4.93-171.2-4.93h-0.21s-102.72,0-171.2,4.93c-9.57,1.13-30.42,1.23-49,20.63-14.67,14.78-19.45,48.36-19.45,48.36S177,282.56,177,322v37c0,39.42,4.89,78.84,4.89,78.84s4.78,33.57,19.45,48.35c18.61,19.41,43.07,18.79,54,20.82,39.15,3.74,166.38,4.9,166.38,4.9s102.83-.15,171.31-5.08c9.56-1.14,30.43-1.23,49-20.64,14.67-14.78,19.45-48.35,19.45-48.35s4.89-39.42,4.89-78.84V322C666.32,282.56,661.43,243.14,661.43,243.14Zm-377,203.36H251.66V258H217.25v-31.1l103.24,0V258H284.44V446.5Zm118,0H371.29v-18c-11.8,13.53-21.81,20.36-32.72,20.36-9.57,0-16.22-4.51-19.54-12.67-2-5-3.46-12.7-3.46-24.08V282.62h31.14V415.36c0.73,4.6,2.68,6.28,6.64,6.28,6,0,11.35-5.18,17.94-14.47V282.62h31.14V446.5Zm113.08-49.16c0,15.15-1.3,25.83-3.28,32.78-4,12.18-12.59,18.5-24.41,18.5-10.55,0-21.36-6.35-31.27-18.61l0,16.5H427V226.9h29.5l0,71.6c9.58-11.79,20.43-18.5,31.35-18.5,11.81,0,19.76,6.82,23.71,19.09,2,6.59,4,17.19,4,32.7v65.55Zm65.19,24.31c7.3,0,11.56-4,13.25-11.9,0.28-1.62.22-8.69,0.22-20.6h31.14v4.64a186.59,186.59,0,0,1-1.05,19.3,42.25,42.25,0,0,1-6.94,17.78c-8.21,11.89-20.38,17.75-35.88,17.75S554.1,443,545.52,431.84c-6.3-8.19-10.34-20.38-10.34-37.78V336.7c0-17.5,3.68-31,10-39.32,8.58-11.21,20.4-17.14,35.54-17.14,14.88,0,26.7,5.93,35,17.14,6.2,8.28,9.65,21.09,9.65,38.59v33.5H566.31v29.43C566.21,414,570.51,421.64,580.7,421.64Z" transform="translate(154.76 -169.22)"/></svg>